<svg xmlns="http://www.w3.org/2000/svg" width="860" height="320" viewBox="0 0 860 320" role="img" aria-labelledby="title desc">
<title id="title">Codebook evolution</title><desc id="desc">Active codebook size over the project&#x27;s append-only event history, with merge, split, and rename decisions marked. Drawn from the event log, so it reflects the real order of analytic decisions.</desc>
<rect width="100%" height="100%" fill="white"/>
<style>text{font-family:-apple-system,BlinkMacSystemFont,"Segoe UI",sans-serif;fill:#1a1a1a}.title{font:600 19px Georgia,serif}.label{font-size:12px}.value{font-size:11px;fill:#666666}.axis{stroke:#e4e4e4;stroke-width:1}</style>
<text class="title" x="24" y="31">Codebook evolution</text>
<line class="axis" x1="70" y1="274" x2="820" y2="274"/><line class="axis" x1="70" y1="58" x2="70" y2="274"/><line class="axis" x1="66" y1="274.0" x2="820" y2="274.0" opacity="0.6"/><text class="value" x="61" y="278.0" text-anchor="end">0</text><line class="axis" x1="66" y1="247.0" x2="820" y2="247.0" opacity="0.6"/><text class="value" x="61" y="251.0" text-anchor="end">1</text><line class="axis" x1="66" y1="220.0" x2="820" y2="220.0" opacity="0.6"/><text class="value" x="61" y="224.0" text-anchor="end">2</text><line class="axis" x1="66" y1="193.0" x2="820" y2="193.0" opacity="0.6"/><text class="value" x="61" y="197.0" text-anchor="end">3</text><line class="axis" x1="66" y1="166.0" x2="820" y2="166.0" opacity="0.6"/><text class="value" x="61" y="170.0" text-anchor="end">4</text><line class="axis" x1="66" y1="139.0" x2="820" y2="139.0" opacity="0.6"/><text class="value" x="61" y="143.0" text-anchor="end">5</text><line class="axis" x1="66" y1="112.0" x2="820" y2="112.0" opacity="0.6"/><text class="value" x="61" y="116.0" text-anchor="end">6</text><line class="axis" x1="66" y1="85.0" x2="820" y2="85.0" opacity="0.6"/><text class="value" x="61" y="89.0" text-anchor="end">7</text><line class="axis" x1="66" y1="58.0" x2="820" y2="58.0" opacity="0.6"/><text class="value" x="61" y="62.0" text-anchor="end">8</text><polyline points="70,274 591.4,274.0 591.4,247.0 598.6,247.0 598.6,220.0 605.7,220.0 605.7,193.0 612.9,193.0 612.9,166.0 620.0,166.0 620.0,139.0 627.1,139.0 627.1,112.0 634.3,112.0 634.3,85.0 748.6,85.0 748.6,58.0 762.9,58.0 762.9,85.0 770.0,85.0 770.0,58.0 820,58.0" fill="none" stroke="#428a5f" stroke-width="2.5"/><circle cx="762.9" cy="85.0" r="5" fill="#b0803f"/><text class="value" x="762.9" y="75.0" text-anchor="middle" fill="#b0803f">merge</text><text class="value" x="816" y="49.0" text-anchor="end">8 active codes</text><text class="value" x="445.0" y="308" text-anchor="middle">analytic history (event sequence)</text><text class="value" transform="translate(20,166.0) rotate(-90)" text-anchor="middle">active codes</text>
</svg>
