<svg xmlns="http://www.w3.org/2000/svg" width="860" height="408" viewBox="0 0 860 408" role="img" aria-labelledby="title desc">
<title id="title">Review outcomes by proposed code</title><desc id="desc">For each code the model proposed during open coding: candidates proposed (light) versus annotations applied after human review (dark). Codes with zero applied were rejected at review.</desc>
<rect width="100%" height="100%" fill="white"/>
<style>text{font-family:-apple-system,BlinkMacSystemFont,"Segoe UI",sans-serif;fill:#1a1a1a}.title{font:600 19px Georgia,serif}.label{font-size:12px}.value{font-size:11px;fill:#666666}.axis{stroke:#e4e4e4;stroke-width:1}</style>
<text class="title" x="24" y="31">Review outcomes by proposed code</text>
<text class="label" x="225" y="73" text-anchor="end">daily_minutiae</text><rect x="235" y="58" width="420.0" height="18" rx="2" fill="#8fc8a5"/><rect x="235" y="62" width="0.0" height="10" rx="2" fill="#428a5f"/><text class="value" x="662.0" y="72">4 proposed · 0 applied</text><text class="label" x="225" y="105" text-anchor="end">political_voice</text><rect x="235" y="90" width="315.0" height="18" rx="2" fill="#8fc8a5"/><rect x="235" y="94" width="315.0" height="10" rx="2" fill="#428a5f"/><text class="value" x="557.0" y="104">3 proposed · 3 applied</text><text class="label" x="225" y="137" text-anchor="end">travel_logistics</text><rect x="235" y="122" width="315.0" height="18" rx="2" fill="#8fc8a5"/><rect x="235" y="126" width="0.0" height="10" rx="2" fill="#428a5f"/><text class="value" x="557.0" y="136">3 proposed · 0 applied</text><text class="label" x="225" y="169" text-anchor="end">weather_report</text><rect x="235" y="154" width="315.0" height="18" rx="2" fill="#8fc8a5"/><rect x="235" y="158" width="0.0" height="10" rx="2" fill="#428a5f"/><text class="value" x="557.0" y="168">3 proposed · 0 applied</text><text class="label" x="225" y="201" text-anchor="end">health_and_scarcity</text><rect x="235" y="186" width="210.0" height="18" rx="2" fill="#8fc8a5"/><rect x="235" y="190" width="210.0" height="10" rx="2" fill="#428a5f"/><text class="value" x="452.0" y="200">2 proposed · 2 applied</text><text class="label" x="225" y="233" text-anchor="end">information_and_delay</text><rect x="235" y="218" width="210.0" height="18" rx="2" fill="#8fc8a5"/><rect x="235" y="222" width="210.0" height="10" rx="2" fill="#428a5f"/><text class="value" x="452.0" y="232">2 proposed · 2 applied</text><text class="label" x="225" y="265" text-anchor="end">public_duty</text><rect x="235" y="250" width="210.0" height="18" rx="2" fill="#8fc8a5"/><rect x="235" y="254" width="210.0" height="10" rx="2" fill="#428a5f"/><text class="value" x="452.0" y="264">2 proposed · 2 applied</text><text class="label" x="225" y="297" text-anchor="end">separation_and_affection</text><rect x="235" y="282" width="210.0" height="18" rx="2" fill="#8fc8a5"/><rect x="235" y="286" width="210.0" height="10" rx="2" fill="#428a5f"/><text class="value" x="452.0" y="296">2 proposed · 2 applied</text><text class="label" x="225" y="329" text-anchor="end">war_and_danger</text><rect x="235" y="314" width="210.0" height="18" rx="2" fill="#8fc8a5"/><rect x="235" y="318" width="210.0" height="10" rx="2" fill="#428a5f"/><text class="value" x="452.0" y="328">2 proposed · 2 applied</text><text class="label" x="225" y="361" text-anchor="end">household_responsibility</text><rect x="235" y="346" width="105.0" height="18" rx="2" fill="#8fc8a5"/><rect x="235" y="350" width="105.0" height="10" rx="2" fill="#428a5f"/><text class="value" x="347.0" y="360">1 proposed · 1 applied</text>
</svg>
